<svg width="49" height="50" viewBox="0 0 431 448" fill="none" xmlns="http://www.w3.org/2000/svg">
<path fill-rule="evenodd" clip-rule="evenodd" d="M106.526 1.40656C104.876 2.15356 80.233 26.1146 51.763 54.6526L0 106.54L0.263 252.505L0.526001 398.469L3.494 403.828C7.191 410.503 12.765 415.353 19.734 417.961C24.927 419.904 27.453 419.969 97.647 419.969H170.193L254.36 434.061C319.467 444.963 339.891 448.05 344.555 447.694C354.894 446.906 364.01 440.79 368.488 431.635C370.653 427.211 375.504 399.683 401.118 246.454C425.106 102.951 431.11 65.2246 430.74 60.3326C429.952 49.9366 423.75 40.9296 413.931 35.9206C411.121 34.4866 398.456 31.9576 372.324 27.6116L334.755 21.3646L332.666 16.9166C329.721 10.6486 323.004 4.47856 316.459 2.02956C311.028 -0.00243592 309.545 -0.0304353 210.238 0.00756475C127.546 0.0395647 108.989 0.290563 106.526 1.40656ZM311.461 18.5046C313.242 19.3496 315.672 21.7736 316.862 23.8906L319.026 27.7406V209.387C319.026 406.468 319.365 394.626 313.574 399.969L310.865 402.469L169.438 402.729C13.584 403.016 23.083 403.392 19.052 396.779C17.053 393.502 17.033 392.117 17.03 256.219L17.026 118.969H63.377C95.381 118.969 110.736 118.618 112.984 117.834C118.96 115.75 119.026 115.16 119.026 63.5006V16.9686H213.625C296.633 16.9686 308.62 17.1566 311.461 18.5046ZM101.57 100.714C101.196 101.689 92.992 101.969 64.813 101.969H28.536L65.031 65.4626L101.526 28.9576L101.789 64.2076C101.934 83.5956 101.835 100.023 101.57 100.714ZM370.331 44.4666C388.588 47.4896 404.992 50.6346 406.783 51.4536C410.79 53.2856 414.017 58.3516 414.022 62.8146C414.029 68.8136 354.841 420.372 353.241 423.837C351.235 428.182 346.6 430.977 341.526 430.903C339.326 430.871 323.576 428.445 306.526 425.512L275.526 420.18L292.594 420.075C304.696 420 311.154 419.526 314.788 418.447C321.586 416.428 329.943 408.821 333.144 401.739L335.526 396.469L335.787 217.719C335.93 119.407 336.292 38.9686 336.591 38.9686C336.89 38.9686 352.073 41.4426 370.331 44.4666ZM161.526 90.1236C156.416 92.9186 155.286 99.9856 159.34 103.795L161.655 105.969H217.886H274.117L276.571 103.514C280.698 99.3876 279.624 92.9456 274.342 90.1316C271.348 88.5376 164.44 88.5296 161.526 90.1236ZM72.268 151.455C66.759 153.863 65.656 160.599 70.051 164.994C71.992 166.935 73.794 166.969 173.352 166.969H274.677L276.852 164.655C279.951 161.356 279.766 156.013 276.446 152.893L273.865 150.469L174.696 150.25C90.762 150.066 75.026 150.251 72.268 151.455ZM70.051 213.944C65.541 218.454 66.758 225.124 72.533 227.536C75.565 228.803 89.757 228.97 174.959 228.738L273.865 228.469L276.446 226.045C279.873 222.824 279.998 217.231 276.712 214.143L274.397 211.969H173.212C73.794 211.969 71.992 212.003 70.051 213.944ZM70.051 274.944C65.845 279.15 66.835 286.041 72.026 288.683C74.01 289.692 95.117 289.905 174.196 289.712L273.865 289.469L276.446 287.045C280.07 283.639 280.044 277.915 276.391 275.042C273.765 272.976 273.419 272.969 172.891 272.969C73.792 272.969 71.991 273.004 70.051 274.944ZM70.227 335.997C65.67 340.242 66.561 346.909 72.056 349.69C73.982 350.664 96.306 350.943 173.326 350.954C278.313 350.97 276.633 351.042 278.405 346.424C279.74 342.945 278.987 338.839 276.571 336.424L274.117 333.969H173.26C73.326 333.969 72.383 333.988 70.227 335.997Z" fill="white"/>
</svg>
