<svg width="50" height="50" fill="none" xmlns="http://www.w3.org/2000/svg"><path fill-rule="evenodd" clip-rule="evenodd" d="M22.626.06c-6.274.653-11.84 3.454-16.128 8.116-6.042 6.57-8.067 16.09-5.244 24.658 1.28 3.884 3.308 7.135 6.272 10.05 3.926 3.864 8.7 6.18 14.414 6.993 1.162.166 5.003.163 6.21-.004 5.735-.794 10.672-3.245 14.642-7.267 3.95-4.002 6.264-8.744 7.085-14.518.164-1.15.164-5.013 0-6.164-.468-3.294-1.43-6.268-2.879-8.904-1.144-2.082-2.48-3.864-4.206-5.614-3.898-3.95-8.735-6.39-14.3-7.214-1.2-.178-4.672-.255-5.866-.131zm14.077 15.104c.432.181.639.596.639 1.279 0 .626-4.133 20.274-4.356 20.704-.313.606-.982.836-1.67.574-.23-.087-2.492-1.716-5.795-4.174l-.82-.61-1.777 1.698c-1.296 1.237-1.865 1.717-2.097 1.768-.176.038-.341.048-.368.02-.027-.026.045-1.45.16-3.164l.21-3.116.687-.636c.377-.35 3.026-2.752 5.885-5.337 2.859-2.586 5.198-4.765 5.198-4.844 0-.1-.104-.14-.346-.133-.28.008-1.731.882-7.59 4.575-3.985 2.51-7.295 4.565-7.357 4.565-.27 0-6.435-1.983-6.728-2.164-.624-.386-.491-.972.324-1.428.213-.119 1.77-.75 3.463-1.403l7.086-2.734 8.752-3.38c5.719-2.21 5.665-2.19 5.944-2.195.123-.002.373.059.556.136z" fill="#DD4141"/></svg>