<svg width="50" height="50" fill="white" xmlns="http://www.w3.org/2000/svg"><path fill-rule="evenodd" clip-rule="evenodd" d="M22.627.06C14.803.875 7.947 5.133 3.782 11.764c-5.905 9.402-4.803 21.819 2.663 29.999 4.132 4.526 9.3 7.233 15.496 8.116 1.157.164 5.002.162 6.21-.004 5.66-.778 10.728-3.288 14.583-7.222 1.265-1.29 1.534-1.6 2.374-2.719 2.5-3.335 4.138-7.401 4.77-11.845.163-1.151.163-5.014 0-6.164-.422-2.963-1.188-5.487-2.418-7.962-1.303-2.623-2.64-4.493-4.72-6.602-3.86-3.914-8.692-6.345-14.247-7.168-1.2-.178-4.672-.255-5.866-.131zm6.208 9.909c8.75 2.085 13.717 10.925 10.903 19.405-.727 2.19-1.874 4.02-3.614 5.767-2.202 2.21-4.583 3.5-7.68 4.163-.848.181-1.342.22-2.836.224-2.479.005-4.019-.311-6.204-1.273-.538-.237-1.045-.43-1.127-.429-.082.001-1.866.456-3.963 1.011-2.098.555-3.825 1.002-3.838.994-.013-.009.451-1.75 1.032-3.87l1.056-3.854-.46-.933c-1.04-2.108-1.496-4.112-1.492-6.56.006-4.188 1.484-7.743 4.436-10.665 2.32-2.296 5.249-3.733 8.653-4.244.162-.024 1.152-.03 2.2-.012 1.624.026 2.06.067 2.934.276zm-4.352 2.235c-4.788.343-9.17 3.772-10.704 8.377-.495 1.489-.633 2.368-.633 4.034 0 2.53.48 4.224 1.907 6.717l.232.405-.61 2.226c-.337 1.223-.593 2.243-.57 2.265.022.023 1.064-.23 2.315-.56l2.276-.6 1.182.59c1.948.974 3.64 1.382 5.737 1.383 5.257.003 10.053-3.466 11.717-8.473.504-1.514.627-2.293.628-3.953 0-1.197-.046-1.734-.218-2.544-1.06-5.002-4.997-8.836-9.986-9.723-1.06-.188-2.046-.232-3.273-.144zm-2.96 5.69c.308.348 1.568 3.476 1.503 3.735-.03.12-.32.563-.643.986-.324.422-.589.839-.589.926 0 .184.782 1.344 1.389 2.06.656.775 1.893 1.718 2.947 2.248 1.32.663 1.385.655 2.14-.267.94-1.149 1.026-1.227 1.276-1.155.3.088 3.096 1.394 3.385 1.58.218.142.23.195.178.805-.03.36-.129.84-.22 1.067-.203.509-.941 1.189-1.688 1.556-.517.254-.642.274-1.73.272-1.082-.002-1.247-.028-2.103-.332-1.416-.503-2.295-.933-3.36-1.642-2.06-1.373-4.489-4.119-5.49-6.208-.433-.905-.569-1.593-.519-2.624.048-.97.298-1.61.944-2.413.52-.648.871-.816 1.71-.818.576-.002.695.028.87.224z" fill="white"/></svg>