<svg id="Layer_1" enable-background="new 0 0 64 64" height="15" viewBox="0 0 64 64" width="17" xmlns="http://www.w3.org/2000/svg"><path d="m32 61c-5.32 0-10.53-1.47-15.09-4.24l-12.6 4.17c-.36.12-.75.03-1.02-.24s-.36-.66-.24-1.02l4.19-12.58c-2.77-4.56-4.24-9.77-4.24-15.09 0-15.99 13.01-29 29-29s29 13.01 29 29-13.01 29-29 29zm-14.96-6.34c.19 0 .37.05.53.15 4.34 2.74 9.33 4.19 14.43 4.19 14.89 0 27-12.11 27-27s-12.11-27-27-27-27 12.11-27 27c0 5.1 1.45 10.09 4.19 14.43.16.25.2.57.1.85l-3.71 11.12 11.15-3.69c.1-.03.2-.05.31-.05zm22.84-7.66c-2.56 0-5.07-.44-7.46-1.31-6.12-2.22-10.91-7-13.12-13.12-.87-2.39-1.3-4.9-1.3-7.46s.44-5.06 1.3-7.46c.18-.49.7-.76 1.2-.62l6.96 1.9c.43.12.74.51.74.96v10.44c0 .45-.3.85-.74.96l-.04.01c1.35 2.7 3.56 4.91 6.26 6.26l.01-.04c.12-.44.51-.74.96-.74h10.44c.45 0 .85.3.96.74l1.89 6.96c.14.5-.13 1.02-.62 1.2-2.37.88-4.88 1.32-7.44 1.32zm-18.99-27.79c-.59 1.91-.89 3.89-.89 5.91 0 2.32.4 4.6 1.19 6.78 2.01 5.56 6.36 9.91 11.92 11.92 4.05 1.47 8.57 1.57 12.68.29l-1.45-5.31h-8.92l-.12.43c-.08.27-.26.5-.52.63-.25.13-.55.14-.82.03-4.02-1.61-7.25-4.84-8.87-8.87-.11-.26-.09-.56.03-.82.13-.25.36-.44.63-.52l.43-.12v-8.92z" fill="#474747"/></svg>