<?xml version="1.0" standalone="no"?>
<!DOCTYPE svg PUBLIC "-//W3C//DTD SVG 20010904//EN"
 "http://www.w3.org/TR/2001/REC-SVG-20010904/DTD/svg10.dtd">
<svg version="1.0" xmlns="http://www.w3.org/2000/svg"
 width="256.000000pt" height="256.000000pt" viewBox="0 0 256.000000 256.000000"
 preserveAspectRatio="xMidYMid meet">
<metadata>
Created by potrace 1.14, written by Peter Selinger 2001-2017
</metadata>
<g transform="translate(0.000000,256.000000) scale(0.100000,-0.100000)"
fill="#000000" stroke="none">
<path d="M1187 2440 c-6 -25 -11 -30 -36 -30 -40 0 -45 -13 -17 -39 21 -20 23
-27 14 -58 -11 -40 -5 -51 17 -33 13 11 15 9 15 -12 0 -40 -57 -143 -101 -182
l-40 -37 31 -17 c16 -9 30 -24 30 -32 0 -8 -27 -40 -60 -72 -33 -31 -60 -59
-60 -62 0 -3 18 -11 40 -17 45 -14 51 -33 20 -71 -27 -35 -132 -46 -167 -18
-13 10 -37 22 -53 25 -35 8 -34 3 -14 72 27 94 -1 184 -73 233 -55 38 -153 40
-228 6 -106 -48 -185 -135 -217 -239 -23 -79 -20 -148 12 -244 25 -76 25 -76
-12 -57 -67 35 -145 -2 -190 -90 -26 -52 -22 -168 10 -238 27 -61 99 -138 156
-167 53 -26 53 -28 31 -144 -57 -301 55 -547 249 -547 57 0 112 21 199 77 37
23 76 43 86 43 11 0 43 -12 72 -27 75 -40 142 -38 236 6 l72 34 51 -22 c31
-13 59 -19 75 -15 34 9 91 74 120 139 18 41 29 55 44 55 20 0 21 -6 21 -107 0
-192 27 -285 90 -318 39 -20 69 -19 106 4 38 23 59 67 73 151 19 110 17 106
75 129 62 26 249 176 315 254 91 108 118 215 73 289 l-21 34 55 55 c106 103
194 261 194 347 0 20 -9 52 -21 71 -17 28 -19 39 -10 58 23 50 6 140 -33 172
-12 10 -15 23 -10 47 9 51 -4 101 -37 139 -77 88 -199 36 -269 -114 -39 -82
-42 -84 -186 -85 -93 -1 -105 -3 -163 -34 l-64 -33 -26 25 c-14 13 -39 30 -54
35 -38 15 -140 14 -190 -1 -35 -11 -41 -10 -54 7 -20 28 -12 49 24 60 18 6 35
14 39 17 3 4 -21 33 -55 65 -54 51 -77 93 -53 93 5 0 17 6 27 14 18 13 17 16
-27 65 -26 29 -56 76 -67 107 -25 66 -26 78 -5 70 14 -5 15 0 10 38 -6 39 -4
46 18 64 29 22 24 32 -16 32 -23 0 -31 6 -39 30 -6 17 -14 30 -19 30 -4 0 -10
-13 -13 -30z m-484 -428 c44 -44 15 -153 -53 -200 -40 -27 -54 -21 -18 8 52
40 73 128 34 143 -29 11 -91 -16 -133 -58 -62 -62 -60 -95 13 -205 80 -121
134 -235 134 -284 0 -40 -2 -41 -48 -57 -26 -9 -54 -19 -63 -23 -13 -6 -18 1
-23 31 -3 21 -33 82 -66 137 -100 165 -129 274 -96 360 19 49 106 138 158 162
47 21 133 13 161 -14z m1611 -89 c3 -8 -3 -50 -14 -93 -11 -43 -20 -81 -20
-85 0 -4 12 -5 27 -2 50 9 82 -25 49 -52 -8 -6 -33 -15 -57 -19 l-44 -8 -23
-79 c-33 -115 -68 -293 -59 -301 23 -24 121 84 175 194 40 79 59 67 22 -15
-41 -92 -148 -225 -191 -238 -55 -18 -109 42 -109 119 0 25 -2 46 -4 46 -3 0
-29 -24 -58 -53 -79 -79 -139 -111 -210 -112 -51 0 -60 3 -92 34 -19 18 -40
47 -47 62 -6 16 -13 29 -16 29 -2 0 -16 -12 -31 -26 -122 -116 -247 -134 -310
-44 -23 33 -32 38 -61 38 -27 -1 -40 5 -62 32 l-28 33 -58 -81 c-88 -123 -116
-130 -128 -32 -3 25 -9 58 -13 75 l-8 29 -23 -37 c-12 -20 -27 -37 -32 -37
-23 0 -17 30 16 85 34 57 35 62 35 161 0 115 10 136 56 115 45 -20 64 -81 64
-208 0 -62 3 -113 8 -113 4 0 23 24 42 53 33 50 34 55 35 152 1 148 30 201 81
150 35 -35 33 -105 -6 -196 -32 -75 -32 -105 0 -134 28 -25 37 -12 43 60 6 84
52 181 108 229 82 70 223 74 259 7 28 -53 -1 -151 -64 -214 -38 -38 -104 -77
-131 -77 -20 0 -29 -23 -21 -55 14 -54 134 -20 202 56 12 13 27 51 34 84 21
105 70 182 140 223 36 22 58 27 112 27 56 0 70 -4 91 -23 14 -13 28 -35 32
-49 9 -39 -21 -124 -61 -171 -35 -42 -117 -92 -149 -92 -22 0 -30 -27 -17 -56
28 -60 167 -4 247 101 18 25 34 67 50 138 12 56 21 105 18 110 -2 4 -17 7 -33
7 -57 0 -49 37 12 49 30 5 37 15 75 90 46 91 67 119 98 131 24 9 42 3 49 -17z
m-1500 -227 c50 -21 59 -54 54 -210 -2 -74 -6 -137 -9 -140 -3 -3 -27 3 -55
13 l-49 19 -8 152 c-5 83 -6 158 -3 166 7 18 28 18 70 0z m-571 -212 c3 -4 -4
-14 -16 -24 -16 -14 -21 -28 -21 -58 3 -92 79 -152 193 -152 l63 0 -32 -40
c-44 -56 -100 -51 -178 15 -74 62 -101 187 -53 239 25 27 33 30 44 20z m549
-205 c52 -28 66 -136 27 -217 -40 -81 -151 -132 -190 -86 -11 14 -9 15 23 9
44 -8 87 12 122 58 44 57 51 147 15 170 -47 30 -155 -61 -219 -184 -66 -126
-81 -237 -50 -358 30 -112 139 -107 262 13 53 52 55 56 60 118 6 72 26 117 72
166 60 64 130 80 179 42 14 -11 31 -20 39 -20 21 -1 54 -32 73 -69 11 -22 17
-57 17 -103 0 -233 -260 -353 -352 -162 l-23 46 -29 -36 c-58 -71 -185 -155
-254 -170 -40 -9 -92 12 -128 50 -94 101 -84 401 18 562 96 152 238 223 338
171z m1002 -175 c9 -24 7 -80 -4 -108 -13 -36 0 -32 34 10 82 103 205 99 222
-7 3 -19 -1 -63 -9 -99 -9 -36 -14 -66 -12 -68 6 -6 95 90 124 132 18 27 27
35 29 23 4 -20 -17 -61 -60 -114 -31 -39 -191 -179 -247 -215 -47 -32 -101
-19 -101 24 0 10 25 42 55 71 80 78 145 233 116 276 -8 12 -15 11 -45 -10 -89
-60 -143 -195 -176 -439 -29 -215 -32 -224 -57 -228 -39 -6 -48 29 -48 198 0
85 3 180 7 212 l8 56 -39 -5 c-49 -7 -79 10 -98 55 l-15 36 -33 -59 c-19 -32
-46 -93 -61 -134 -25 -72 -57 -121 -76 -121 -18 0 -38 71 -38 134 0 124 47
303 87 334 9 6 30 12 45 12 40 0 55 -35 41 -95 -6 -25 -9 -45 -7 -45 2 0 19
31 39 69 35 70 57 88 94 76 45 -14 52 -113 11 -150 -17 -15 -24 -16 -45 -7
-22 10 -25 9 -25 -7 0 -32 39 -71 70 -71 29 0 70 39 70 66 0 33 51 169 71 190
26 27 64 32 73 8z"/>
<path d="M1545 1638 c-58 -32 -114 -112 -130 -185 -5 -27 -3 -33 10 -33 33 0
82 29 122 73 73 79 71 187 -2 145z"/>
<path d="M1909 1626 c-74 -50 -143 -206 -91 -206 26 0 106 53 129 86 29 41 45
102 32 125 -13 25 -27 24 -70 -5z"/>
<path d="M1072 925 c-12 -15 -24 -35 -27 -46 -11 -33 -27 -22 -19 13 6 30 5
31 -10 18 -24 -19 -63 -98 -71 -143 -9 -45 1 -118 19 -142 30 -42 95 31 136
154 22 67 24 161 4 168 -7 2 -21 -8 -32 -22z"/>
</g>
</svg>
